<svg width="63" height="54" fill="none" xmlns="http://www.w3.org/2000/svg"><path opacity=".15" d="M50.617 11.674C46.42 4.364 39.273 0 31.5 0c-7.774 0-14.92 4.364-19.116 11.674L2.274 29.286C.595 32.208-.179 35.584.033 39.047c.213 3.464 1.393 6.689 3.413 9.33 2.021 2.638 4.692 4.44 7.723 5.215 3.032.773 6.14.443 8.986-.954l.191-.095c7.164-3.446 15.35-3.414 22.496.095 1.843.904 3.796 1.362 5.766 1.362 1.072 0 2.15-.136 3.218-.407 3.031-.774 5.702-2.577 7.724-5.216 2.02-2.638 3.2-5.864 3.414-9.328.214-3.465-.56-6.84-2.238-9.764l-10.11-17.611z" fill="#E9C5A5"/></svg>