<svg width="16" height="17" fill="none" xmlns="http://www.w3.org/2000/svg"><path d="M10.913 15.944l.04-.014C19.104 12.695 16.849.5 8.008.5 3.57.5 0 4.113 0 8.499c0 5.55 5.628 9.51 10.913 7.445zM3.524 13.87c.569-.954 2.408-3.647 5.549-4.576a16.828 16.828 0 011.162 5.836 6.965 6.965 0 01-6.71-1.26zm7.696.842a17.928 17.928 0 00-1.142-5.643c1.39-.217 2.998-.072 4.822.658a7.016 7.016 0 01-3.68 4.985zm3.785-6.02c-2.009-.753-3.78-.847-5.312-.555a18.7 18.7 0 00-.749-1.518c2.351-.938 3.74-2.081 4.362-2.686a6.904 6.904 0 011.699 4.76zm-2.41-5.471c-.565.538-1.898 1.624-4.177 2.513A18.71 18.71 0 005.35 2.026a6.971 6.971 0 017.246 1.195zm-8.202-.706c.571.502 1.825 1.707 3.035 3.57-1.662.535-3.745.928-6.279.983a7.012 7.012 0 013.244-4.553zm-3.37 5.557c2.835-.046 5.131-.493 6.945-1.098.251.439.49.917.718 1.415-3.16 1.005-5.134 3.6-5.89 4.772a6.903 6.903 0 01-1.774-5.089z" fill="#211105"/></svg>