<svg width="15" height="13" fill="none" xmlns="http://www.w3.org/2000/svg"><path d="M14.77 1.92a6.304 6.304 0 01-1.745.479A3.01 3.01 0 0014.357.725a6.05 6.05 0 01-1.92.733 3.027 3.027 0 00-5.238 2.07c0 .24.02.471.07.691a8.57 8.57 0 01-6.24-3.167 3.032 3.032 0 00.93 4.047A2.99 2.99 0 01.59 4.726v.033a3.042 3.042 0 002.426 2.975 3 3 0 01-.794.1c-.194 0-.39-.011-.573-.052a3.057 3.057 0 002.829 2.11 6.084 6.084 0 01-3.754 1.29c-.249 0-.487-.01-.725-.04A8.524 8.524 0 004.645 12.5c5.572 0 8.618-4.615 8.618-8.616a7.68 7.68 0 00-.011-.391 6.04 6.04 0 001.517-1.572z" fill="#211105"/></svg>